<svg width="16" height="22" viewBox="0 0 16 22" fill="none" xmlns="http://www.w3.org/2000/svg">
<path d="M14 7.49976H13V5.49976C13 2.73976 10.76 0.499756 8 0.499756C5.24 0.499756 3 2.73976 3 5.49976H5C5 3.83976 6.34 2.49976 8 2.49976C9.66 2.49976 11 3.83976 11 5.49976V7.49976H2C0.9 7.49976 0 8.39976 0 9.49976V19.4998C0 20.5998 0.9 21.4998 2 21.4998H14C15.1 21.4998 16 20.5998 16 19.4998V9.49976C16 8.39976 15.1 7.49976 14 7.49976ZM14 19.4998H2V9.49976H14V19.4998ZM8 16.4998C9.1 16.4998 10 15.5998 10 14.4998C10 13.3998 9.1 12.4998 8 12.4998C6.9 12.4998 6 13.3998 6 14.4998C6 15.5998 6.9 16.4998 8 16.4998Z" fill="#5E6278"/>
</svg>
